PathFileType	4	(X/Y/Z)	C:\Users\Basilio\Documents\Thesis Gigler\squatting_fais\c3dfiles\077\SJ_pre2\markers_experimental.trc
DataRate	CameraRate	NumFrames	NumMarkers	Units	OrigDataRate	OrigDataStartFrame	OrigNumFrames
200.000000	200.000000	4	60	mm	200.000000	789	1263
Frame#	Time	FHD			LBHD			RBHD			C7			T10			CLAV			LSHO			LUUPA			LMUPA			LDUPA			LLEP			LMEP			LRAD			LUL			LRFIN			RSHO			RUPA1			RMUPA			RDUPA			RLEP			RMEP			RRAD			RUL			RUFIN			LASI			RASI			USACR			LSACR			RSACR			LTHI1			LTHI2			LTHI3			LTHI4			LLFC			LMFC			LTIB1			LTIB2			LTIB3			LTIB4			LLMAL			LHEE			LMT1			LMT2			LMT5			RTHI			RTHI2			RTHI3			RTHI4			RLFC			RMFC			RTIB1			RTIB2			RTIB3			RTIB4			RLMAL			RMMAL			RHEE			RMT1			RMT2			RMT5			
		X1	Y1	Z1	X2	Y2	Z2	X3	Y3	Z3	X4	Y4	Z4	X5	Y5	Z5	X6	Y6	Z6	X7	Y7	Z7	X8	Y8	Z8	X9	Y9	Z9	X10	Y10	Z10	X11	Y11	Z11	X12	Y12	Z12	X13	Y13	Z13	X14	Y14	Z14	X15	Y15	Z15	X16	Y16	Z16	X17	Y17	Z17	X18	Y18	Z18	X19	Y19	Z19	X20	Y20	Z20	X21	Y21	Z21	X22	Y22	Z22	X23	Y23	Z23	X24	Y24	Z24	X25	Y25	Z25	X26	Y26	Z26	X27	Y27	Z27	X28	Y28	Z28	X29	Y29	Z29	X30	Y30	Z30	X31	Y31	Z31	X32	Y32	Z32	X33	Y33	Z33	X34	Y34	Z34	X35	Y35	Z35	X36	Y36	Z36	X37	Y37	Z37	X38	Y38	Z38	X39	Y39	Z39	X40	Y40	Z40	X41	Y41	Z41	X42	Y42	Z42	X43	Y43	Z43	X44	Y44	Z44	X45	Y45	Z45	X46	Y46	Z46	X47	Y47	Z47	X48	Y48	Z48	X49	Y49	Z49	X50	Y50	Z50	X51	Y51	Z51	X52	Y52	Z52	X53	Y53	Z53	X54	Y54	Z54	X55	Y55	Z55	X56	Y56	Z56	X57	Y57	Z57	X58	Y58	Z58	X59	Y59	Z59	X60	Y60	Z60	

790	3.945	30.15614128112794	1667.358642578125	-898.957946777344	-108.9067306518555	1558.139038085938	-970.6126098632815	-118.6835403442383	1553.675415039063	-825.8051757812502	-169.281967163086	1467.081909179688	-907.2693481445315	-314.4829406738282	1159.919555664063	-904.675964355469	-20.0632610321045	1362.829345703125	-894.7753906250002	-32.86161422729493	1426.720336914063	-1071.464965820313	-96.53932189941409	1319.608642578125	-1257.709106445313	-82.21203613281251	1271.451782226563	-1257.283447265625	-117.2125930786133	1276.070434570313	-1306.874389648438	-135.5024871826172	1214.45458984375	-1340.107177734375	-221.2074584960938	1230.176635742188	-1324.418701171875	-238.2902069091797	1029.074096679688	-1112.444702148438	-212.7753601074219	969.135192871094	-1162.092041015625	nan	nan	nan	-14.41128063201905	1419.456176757813	-725.7508544921876	-106.6177825927735	1314.55078125	-540.1248168945314	-103.6856002807617	1264.807495117188	-546.5609130859376	-138.9337310791016	1267.435668945313	-498.4936523437501	-170.1809387207032	1208.024169921875	-472.0757141113282	-252.8666076660157	1237.393920898438	-487.9680175781251	-304.5485534667969	1017.473449707031	-658.7023315429689	-261.3542785644532	961.6614379882815	-621.9909667968751	-257.3514099121094	999.5252685546877	-710.6498413085939	nan	nan	nan	nan	nan	nan	-368.1748657226563	1082.771850585938	-906.1499633789065	-386.902069091797	1062.412963867188	-936.6427001953127	-396.8539428710939	1059.508544921875	-882.2734985351565	-252.2325592041016	781.7212524414065	-1134.136474609375	-189.5329895019532	729.0959472656251	-1155.004150390625	-145.1476593017578	747.5895385742189	-1143.794677734375	-191.5574340820313	667.9531860351564	-1160.626220703125	-103.5924835205078	540.7307739257814	-1174.686401367188	-88.67001342773439	491.8509216308595	-1055.887451171875	-144.4289093017578	310.5860900878907	-1151.6865234375	-194.0761108398438	297.2735900878907	-1223.241821289063	-166.8339080810547	276.2384338378907	-1194.165283203125	-209.8565826416016	205.1868896484376	-1175.732421875	-318.1103820800782	135.128158569336	-1232.794921875	-384.0115051269532	89.19004821777345	-1183.266723632813	-170.7522125244141	51.60165786743165	-1198.651123046875	-175.2776184082032	60.23784637451173	-1239.818969726563	-283.7537536621094	121.1157913208008	-1149.128662109375	-243.9327545166016	687.3715209960939	-619.7052612304689	-181.8362731933594	661.1975708007814	-597.4781494140626	-151.7405395507813	678.1442260742189	-600.5704345703126	-167.4842071533203	579.6368408203126	-600.2484741210939	-148.0199584960938	519.4965209960939	-586.5711669921876	-95.39434051513673	491.7491760253907	-699.3203125000001	-136.8426971435547	375.0695190429688	-590.6354370117189	-232.5307617187501	329.4446105957032	-576.2456054687501	-190.8028869628907	307.8906555175782	-583.7544555664064	-196.5543212890626	263.4966735839844	-624.4319458007814	-340.6597595214844	128.5820617675782	-602.7438964843751	-294.0976257324219	117.9359283447266	-683.3922729492189	-398.5642395019532	91.22130584716798	-673.1493530273439	-190.3608551025391	56.23294830322267	-589.5011596679689	-205.8208465576172	58.85777664184572	-555.8308105468751	-241.0638732910157	42.67167663574219	-516.8099365234376	
791	3.95	27.80978775024415	1678.384765625	-899.057067871094	-111.843132019043	1569.35400390625	-970.5496826171877	-121.1866836547852	1565.406494140625	-825.6518554687502	-172.0010223388672	1477.769409179688	-907.6688232421877	-314.9913940429688	1168.173461914063	-904.7066650390627	-22.23728561401368	1375.590576171875	-894.6030273437502	-35.59235000610352	1439.360961914063	-1071.217407226563	-97.87407684326175	1331.289428710938	-1257.609252929688	-82.96746826171876	1283.296264648438	-1256.883422851563	-118.1467971801758	1287.4951171875	-1306.640502929688	-136.6110992431641	1225.766845703125	-1339.88671875	-221.9214324951172	1240.567138671875	-1323.92041015625	-236.7237091064454	1038.74853515625	-1112.431030273438	-210.6704559326172	979.0119628906252	-1162.216552734375	nan	nan	nan	-17.26325416564942	1433.331420898438	-725.8709106445314	-108.6998596191407	1327.496459960938	-540.4284057617189	-105.2745590209961	1277.708740234375	-546.9006958007814	-140.5816497802735	1280.018432617188	-498.9294738769532	-171.26611328125	1220.40869140625	-472.4147949218751	-254.3896942138672	1248.789916992188	-488.6641235351564	-302.9516296386719	1027.619873046875	-658.8271484375001	-258.9697570800782	972.5544433593752	-620.9796752929689	-255.3403625488282	1009.692749023438	-710.5598754882814	nan	nan	nan	nan	nan	nan	-367.4824218750001	1089.945678710938	-906.175964355469	-385.9844360351564	1069.201049804688	-936.6917114257815	-396.1722106933595	1066.20068359375	-882.1740722656252	-250.9819641113282	787.3381958007815	-1133.621459960938	-188.8515930175782	733.2271118164064	-1154.32421875	-145.0897979736328	751.4063720703126	-1144.197998046875	-192.7853393554688	672.2803955078126	-1159.809448242188	-106.1989898681641	544.2063598632814	-1174.046997070313	-90.84030914306642	495.0329895019532	-1055.104858398438	-145.5920867919922	313.3622741699219	-1151.426635742188	-196.1185760498047	300.1009826660157	-1223.149047851563	-167.5357208251953	278.6982116699219	-1193.982299804688	-209.8468322753907	207.0995025634766	-1175.798461914063	-317.6478576660157	136.25146484375	-1232.85791015625	-383.3585815429688	90.6816864013672	-1183.383666992188	-170.4076690673828	51.60906982421876	-1198.725708007813	-174.9909057617188	60.03058242797853	-1239.849365234375	-283.1341857910157	122.4874954223633	-1149.232177734375	-245.1963195800782	691.8154907226564	-620.3981933593751	-183.6568145751953	664.6583862304689	-597.5471191406251	-153.5234985351563	680.9360961914064	-600.3190307617189	-170.5350952148438	583.0925292968751	-600.5894165039064	-151.4351654052735	522.2609252929689	-586.6034545898439	-96.87545013427737	494.6203613281251	-698.6467895507814	-139.0208587646485	378.0689086914063	-590.4951171875001	-234.2144012451172	331.2430114746094	-575.9439086914064	-192.3491973876954	310.3959045410157	-583.6414184570314	-197.507064819336	265.2342529296876	-624.0642089843751	-340.4510498046876	129.5243682861328	-602.6164550781251	-293.5060424804688	119.2235946655274	-683.1269531250001	-398.8602905273439	92.9695510864258	-672.6613769531251	-190.1405029296875	56.11792755126955	-589.3341674804689	-205.5092163085938	58.81191635131837	-555.6315307617189	-240.9854583740235	42.64282226562501	-516.7663574218751	
792	3.955	25.64080810546876	1689.5595703125	-899.0839843750002	-114.5392074584961	1581.05126953125	-970.4097900390627	-123.6774368286133	1577.108276367188	-825.5804443359377	-175.301498413086	1489.133422851563	-907.9832763671877	-315.2890014648438	1176.741455078125	-904.7263183593752	-24.71586227416993	1388.742065429688	-894.7006835937502	-38.3670883178711	1452.25439453125	-1071.304443359375	-99.27677917480472	1343.500732421875	-1257.5751953125	-84.38804626464845	1295.403686523438	-1256.666015625	-119.0320587158203	1298.810913085938	-1306.4658203125	-136.9244995117188	1237.1552734375	-1339.298217773438	-222.7721252441407	1251.203247070313	-1323.516967773438	-234.9445953369141	1048.571411132813	-1112.405151367188	-208.8800354003907	989.0402832031252	-1162.562622070313	nan	nan	nan	-20.07765007019043	1447.2919921875	-726.0408935546876	-110.8250045776367	1340.47412109375	-540.8438110351564	-106.8096923828125	1290.7041015625	-547.1928100585939	-142.330795288086	1292.55078125	-499.5213317871095	-172.5784759521485	1233.037841796875	-472.8165893554689	-255.8896026611329	1260.56640625	-489.2296142578126	-301.2491149902344	1037.835083007813	-658.9805297851564	-257.4130249023438	983.3725585937502	-621.0121459960939	-253.3138732910157	1020.088195800781	-710.4022216796876	nan	nan	nan	nan	nan	nan	-366.7520141601563	1097.2470703125	-905.951599121094	-385.0186462402345	1076.467041015625	-936.4150390625002	-395.1756896972657	1073.093872070313	-882.0424804687502	-250.3922729492188	793.1267700195315	-1133.173461914063	-189.2471160888672	737.4022827148439	-1154.217163085938	-146.0091705322266	755.4984741210939	-1144.931518554688	-194.1542053222657	676.8091430664064	-1159.093017578125	-108.9652175903321	547.8673095703126	-1173.395385742188	-93.4114227294922	498.4093627929689	-1054.56640625	-146.6011352539063	316.2618103027344	-1150.777099609375	-197.3266754150391	302.6616821289063	-1222.97265625	-168.4581604003907	281.3740844726563	-1193.656616210938	-209.620101928711	209.3589935302735	-1175.520263671875	-316.8083496093751	137.4272003173828	-1233.058959960938	-382.6690063476563	92.59363555908205	-1183.302734375	-169.972396850586	51.62987136840822	-1198.90966796875	-174.4232635498047	59.76952362060548	-1239.80859375	-282.4868469238282	123.686019897461	-1149.223754882813	-246.7159881591797	696.5599975585939	-621.0030517578126	-185.8954162597657	668.1402587890626	-597.9613647460939	-155.4415588378907	683.7751464843751	-600.3140869140626	-174.1058807373047	586.6122436523439	-600.6417236328126	-155.0996856689453	525.4568481445314	-586.6705932617189	-99.30600738525393	497.7543945312501	-698.2253417968751	-141.5245819091797	381.1380310058594	-590.4380493164064	-236.1213073730469	333.4990539550782	-576.0847778320314	-194.0113677978516	312.7583312988282	-583.3397827148439	-198.5499267578126	267.6485595703126	-623.7518310546876	-340.1945800781251	130.6934967041016	-602.5958862304689	-293.0457153320313	120.5304870605469	-682.9888305664064	-398.140838623047	94.47459411621095	-672.6898193359376	-189.8628082275391	56.06999588012697	-589.1288452148439	-205.2191467285157	58.75433731079103	-555.5164794921876	-240.8176422119141	42.74517822265626	-516.7043457031251	
793	3.96	23.20669555664063	1701.382934570313	-899.1567382812502	-117.3702774047852	1592.735229492188	-970.1008911132815	-126.0904693603516	1588.96337890625	-825.3862915039065	-178.2421417236328	1500.865356445313	-907.9843750000002	-315.7022094726563	1185.161010742188	-904.4449462890627	-26.86313819885255	1401.900390625	-894.5048828125002	-41.06434631347657	1465.305419921875	-1071.243286132813	-100.5453033447266	1355.680297851563	-1257.564575195313	-85.10066986083986	1307.776489257813	-1256.498291015625	-120.1345367431641	1310.808837890625	-1306.261596679688	-137.3737487792969	1248.809692382813	-1338.84619140625	-223.3533477783204	1261.837890625	-1323.212524414063	-233.1137847900391	1058.669311523438	-1112.5546875	-207.4591827392579	999.2324218750002	-1162.996826171875	nan	nan	nan	-22.83090209960938	1461.414428710938	-726.3106689453126	-112.9431991577149	1353.615478515625	-541.2189941406251	-108.4621658325196	1303.8701171875	-547.5203857421876	-144.1600036621094	1305.449829101563	-499.8907775878907	-173.9160308837891	1245.534301757813	-473.1441955566407	-257.3431091308594	1272.580200195313	-489.8492431640626	-299.7876586914063	1048.60302734375	-659.2959594726564	-255.5451965332032	994.3523559570315	-620.3579711914064	-252.1916656494141	1030.34228515625	-711.6860351562501	nan	nan	nan	nan	nan	nan	-366.0491943359376	1104.886840820313	-905.627380371094	-383.7009277343751	1083.612426757813	-936.1807250976565	-394.0254821777345	1080.240844726563	-881.828796386719	-249.8601684570313	799.0403442382815	-1132.832153320313	-189.671859741211	742.2261352539064	-1153.88671875	-146.131576538086	759.5969238281251	-1145.26025390625	-195.8239135742188	681.6658325195314	-1158.044311523438	-112.5013427734375	551.2960205078126	-1172.617797851563	-96.4192810058594	501.7438049316407	-1054.203857421875	-148.2507629394532	319.3129882812501	-1150.3310546875	-197.7734375000001	305.1879882812501	-1222.37890625	-169.5186614990235	284.5530090332032	-1193.222534179688	-209.7645111083985	211.7345428466797	-1175.33544921875	-316.5450134277344	138.7330474853516	-1232.79443359375	-381.7245483398438	94.3638381958008	-1183.184692382813	-169.5370330810547	51.73357009887697	-1199.005249023438	-174.076416015625	59.56418228149415	-1239.882202148438	-281.9555664062501	125.321403503418	-1149.350463867188	-248.376449584961	701.3742675781251	-621.9900512695314	-188.2425842285157	671.8787841796876	-598.3981323242189	-157.6057739257813	687.0170898437501	-600.0587768554689	-177.7008514404297	590.4000244140626	-601.2658691406251	-159.0183715820313	528.7452392578126	-586.9935302734376	-103.0583724975586	500.9578247070314	-698.1591796875001	-143.9803619384766	384.9475402832032	-590.2398681640626	-238.2056732177735	335.6579284667969	-576.1857299804689	-195.7119293212891	315.6538391113282	-583.1399536132814	-200.2695617675782	270.5122680664063	-623.8229980468751	-339.8871765136719	131.7935485839844	-602.5181274414064	-292.3265075683594	121.8093032836914	-682.6060180664064	-397.3855895996095	96.03304290771487	-672.6395263671876	-189.4676666259766	56.0004348754883	-588.8311157226564	-204.8045959472657	58.71569061279298	-555.3762817382814	-240.6979675292969	42.75365447998048	-516.6771240234376	
